<?xml version="1.0" standalone="no"?>
<!DOCTYPE svg PUBLIC "-//W3C//DTD SVG 20010904//EN"
 "http://www.w3.org/TR/2001/REC-SVG-20010904/DTD/svg10.dtd">
<svg version="1.0" xmlns="http://www.w3.org/2000/svg"
 width="250.000000pt" height="250.000000pt" viewBox="0 0 250.000000 250.000000"
 preserveAspectRatio="xMidYMid meet">
<metadata>
Created by potrace 1.11, written by Peter Selinger 2001-2013
</metadata>
<g transform="translate(0.000000,250.000000) scale(0.100000,-0.100000)"
fill="#000000" stroke="none">
<path d="M1100 2493 c-495 -71 -889 -397 -1039 -861 -16 -49 -32 -109 -36
-133 -4 -24 -10 -53 -12 -64 -3 -11 -6 -85 -8 -165 -5 -270 63 -499 216 -727
105 -156 299 -323 477 -412 98 -49 181 -76 342 -112 62 -14 296 -18 380 -6
260 36 508 158 693 340 93 92 109 111 174 205 83 121 169 329 189 462 3 19 9
54 13 76 9 46 6 266 -3 333 -20 137 -47 222 -118 371 -109 227 -305 431 -538
557 -94 51 -254 105 -380 128 -39 7 -311 13 -350 8z m416 -835 c128 -213 232
-388 230 -388 -4 0 -87 35 -151 64 -27 13 -111 49 -185 81 -74 32 -137 62
-140 66 -5 7 -5 577 0 589 1 3 4 -1 7 -9 3 -8 111 -189 239 -403z m-281 112
l0 -290 -140 -62 c-77 -33 -183 -80 -235 -103 -52 -24 -97 -41 -99 -39 -2 1 7
20 20 41 13 21 31 50 39 65 78 137 403 678 408 678 4 0 7 -131 7 -290z m-4
-357 c3 -79 0 -465 -4 -469 -2 -3 -73 37 -158 87 -149 88 -177 104 -283 165
l-50 28 81 37 c44 20 132 59 194 85 63 27 134 59 159 71 58 28 60 28 61 -4z
m142 -17 c142 -61 287 -125 321 -142 16 -8 35 -14 42 -14 31 0 19 -19 -29 -47
-29 -16 -134 -78 -234 -136 -101 -59 -188 -108 -195 -109 -10 -2 -12 53 -13
245 0 136 1 247 3 247 1 0 48 -20 105 -44z m341 -338 c-21 -29 -63 -89 -94
-133 -31 -44 -113 -159 -181 -256 -68 -97 -135 -191 -149 -209 l-26 -33 1 202
c0 168 3 204 15 212 23 14 79 47 270 158 96 56 179 106 184 111 25 25 14 -4
-20 -52z m-876 6 c42 -25 84 -49 92 -55 8 -5 62 -36 120 -69 58 -33 112 -65
120 -70 8 -6 25 -15 38 -22 14 -7 22 -21 23 -37 1 -31 1 -350 0 -369 -1 -14
-71 82 -261 354 -52 75 -100 141 -105 148 -22 25 -116 166 -110 166 3 0 40
-21 83 -46z"/>
</g>
</svg>
